<svg class="border shadow-md" viewBox="0 0 797.8666666666667 448.8" style="width: 797.867px; height: 448.8px;" xmlns="http://www.w3.org/2000/svg" preserveAspectRatio="none"><rect class="bg" id="bg" x="0" y="0" width="797.8666666666667" height="448.8" fill="#ffffff"/><g transform="rotate(0 398.93333333333334 224.4)"><path d="M -249.47 -7.40 S -164.00 -27.40&#10;            0.00 -7.40 63.47 -26.10&#10;            249.47 -7.40 364.20 -39.40&#10;            498.93 -7.40 613.67 -26.10&#10;            748.40 -7.40 863.13 -26.10&#10;            997.87 -7.40 1056.33 -32.40&#10;            1247.33 -7.40 h 110 V 648.8 H -249.47 Z" fill="#8BEEC2" id="-1"/><path d="M -249.47 30.00 S -134.73 11.30&#10;            0.00 30.00 114.73 -3.00&#10;            249.47 30.00 364.20 11.30&#10;            498.93 30.00 613.67 -3.00&#10;            748.40 30.00 863.13 11.30&#10;            997.87 30.00 1112.60 7.00&#10;            1247.33 30.00 h 110 V 648.8 H -249.47 Z" fill="#81deb6" id="0"/><path id="1" d="M -249.47 67.40 S -156.00 48.70&#10;            0.00 67.40 114.73 33.40&#10;            249.47 67.40 346.93 48.70&#10;            498.93 67.40 613.67 34.40&#10;            748.40 67.40 863.13 48.70&#10;            997.87 67.40 1112.60 48.70&#10;            1247.33 67.40 h 110 V 648.8 H -249.47 Z" fill="#77ceaa"/><path id="2" d="M -249.47 104.80 S -134.73 84.80&#10;            0.00 104.80 94.47 86.10&#10;            249.47 104.80 364.20 68.80&#10;            498.93 104.80 613.67 76.80&#10;            748.40 104.80 863.13 76.80&#10;            997.87 104.80 1064.33 86.10&#10;            1247.33 104.80 h 110 V 648.8 H -249.47 Z" fill="#6dbe9e"/><path id="3" d="M -249.47 142.20 S -134.73 123.50&#10;            0.00 142.20 114.73 114.20&#10;            249.47 142.20 303.93 114.20&#10;            498.93 142.20 613.67 118.20&#10;            748.40 142.20 863.13 105.20&#10;            997.87 142.20 1112.60 109.20&#10;            1247.33 142.20 h 110 V 648.8 H -249.47 Z" fill="#63ae92"/><path id="4" d="M -249.47 179.60 S -134.73 146.60&#10;            0.00 179.60 114.73 159.60&#10;            249.47 179.60 331.93 160.90&#10;            498.93 179.60 551.40 149.60&#10;            748.40 179.60 762.87 148.60&#10;            997.87 179.60 1112.60 160.90&#10;            1247.33 179.60 h 110 V 648.8 H -249.47 Z" fill="#599e86"/><path id="5" d="M -249.47 217.00 S -134.73 198.30&#10;            0.00 217.00 114.73 198.30&#10;            249.47 217.00 322.93 184.00&#10;            498.93 217.00 613.67 182.00&#10;            748.40 217.00 863.13 191.00&#10;            997.87 217.00 1112.60 198.30&#10;            1247.33 217.00 h 110 V 648.8 H -249.47 Z" fill="#4f8e7a"/><path id="6" d="M -249.47 254.40 S -134.73 225.40&#10;            0.00 254.40 54.47 235.70&#10;            249.47 254.40 323.93 235.70&#10;            498.93 254.40 557.40 227.40&#10;            748.40 254.40 863.13 235.70&#10;            997.87 254.40 1112.60 217.40&#10;            1247.33 254.40 h 110 V 648.8 H -249.47 Z" fill="#457e6e"/><path id="7" d="M -249.47 291.80 S -134.73 273.10&#10;            0.00 291.80 114.73 272.80&#10;            249.47 291.80 247.93 273.10&#10;            498.93 291.80 573.40 269.80&#10;            748.40 291.80 863.13 273.10&#10;            997.87 291.80 1106.33 256.80&#10;            1247.33 291.80 h 110 V 648.8 H -249.47 Z" fill="#3b6e62"/><path id="8" d="M -249.47 329.20 S -134.73 294.20&#10;            0.00 329.20 114.73 305.20&#10;            249.47 329.20 364.20 310.50&#10;            498.93 329.20 549.40 307.20&#10;            748.40 329.20 819.87 310.50&#10;            997.87 329.20 1112.60 293.20&#10;            1247.33 329.20 h 110 V 648.8 H -249.47 Z" fill="#315e56"/><path id="9" d="M -249.47 366.60 S -134.73 344.60&#10;            0.00 366.60 91.47 336.60&#10;            249.47 366.60 364.20 347.90&#10;            498.93 366.60 613.67 347.90&#10;            748.40 366.60 800.87 332.60&#10;            997.87 366.60 1112.60 347.90&#10;            1247.33 366.60 h 110 V 648.8 H -249.47 Z" fill="#274e4a"/><path id="10" d="M -249.47 404.00 S -245.00 371.00&#10;            0.00 404.00 106.47 385.30&#10;            249.47 404.00 284.93 385.30&#10;            498.93 404.00 613.67 385.30&#10;            748.40 404.00 751.87 385.30&#10;            997.87 404.00 1053.33 378.00&#10;            1247.33 404.00 h 110 V 648.8 H -249.47 Z" fill="#1d3e3e"/><path id="11" d="M -249.47 441.40 S -134.73 422.70&#10;            0.00 441.40 114.73 421.40&#10;            249.47 441.40 364.20 422.70&#10;            498.93 441.40 613.67 422.70&#10;            748.40 441.40 863.13 415.40&#10;            997.87 441.40 1021.33 410.40&#10;            1247.33 441.40 h 110 V 648.8 H -249.47 Z" fill="#132e32"/></g></svg>